<svg xmlns="http://www.w3.org/2000/svg" width="256" height="256" viewBox="0 0 256 256" shape-rendering="crispEdges">
  <path d="M112 110L248 158L112 206L2 158Z" fill="#2f8f5b" stroke="#1f5f3d" stroke-width="2"/>
  <path d="M2 158L112 206L112 254L2 206Z" fill="#267a4d" stroke="#1f5f3d" stroke-width="2"/>
  <path d="M112 206L248 158L248 206L112 254Z" fill="#216b44" stroke="#1f5f3d" stroke-width="2"/>

  <path d="M112 56L248 104L112 152L2 104Z" fill="#4fbf7a" stroke="#1f5f3d" stroke-width="2"/>
  <path d="M2 104L112 152L112 200L2 152Z" fill="#43ad6e" stroke="#1f5f3d" stroke-width="2"/>
  <path d="M112 152L248 104L248 152L112 200Z" fill="#3a9c64" stroke="#1f5f3d" stroke-width="2"/>

  <path d="M112 2L248 50L112 98L2 50Z" fill="#7fdca4" stroke="#1f5f3d" stroke-width="2"/>
  <path d="M2 50L112 98L112 146L2 98Z" fill="#6ccf98" stroke="#1f5f3d" stroke-width="2"/>
  <path d="M112 98L248 50L248 98L112 146Z" fill="#5fbf8b" stroke="#1f5f3d" stroke-width="2"/>

  <path d="M176 182 L212 182 L224 194 L224 254 L164 254 L164 194 Z" fill="#9fe8bf" stroke="#1f5f3d" stroke-width="2"/>
  <text x="194" y="235" font-family="monospace" font-size="46" text-anchor="middle" fill="#1f5f3d">$</text>
</svg>
