<svg width="256" height="256" viewBox="0 0 256 256" xmlns="http://www.w3.org/2000/svg" role="img" aria-labelledby="title desc">
	<title id="title">Washington logo</title>
	<desc id="desc">A layered green stack with a corrected green price tag badge.</desc>
	<defs>
		<linearGradient id="topLayer" x1="22" y1="34" x2="189" y2="112" gradientUnits="userSpaceOnUse">
			<stop offset="0" stop-color="#B3D90A" />
			<stop offset="1" stop-color="#75B61E" />
		</linearGradient>
		<linearGradient id="midLayer" x1="19" y1="82" x2="193" y2="159" gradientUnits="userSpaceOnUse">
			<stop offset="0" stop-color="#8CC410" />
			<stop offset="1" stop-color="#4D9B1D" />
		</linearGradient>
		<linearGradient id="bottomLayer" x1="18" y1="123" x2="191" y2="199" gradientUnits="userSpaceOnUse">
			<stop offset="0" stop-color="#3E8F21" />
			<stop offset="1" stop-color="#1F6E1D" />
		</linearGradient>
		<linearGradient id="tagFill" x1="151" y1="109" x2="226" y2="203" gradientUnits="userSpaceOnUse">
			<stop offset="0" stop-color="#63B118" />
			<stop offset="1" stop-color="#2C7B18" />
		</linearGradient>
	</defs>

	<g fill="none" fill-rule="evenodd">
		<path d="M24 56 113 22a28 28 0 0 1 20 0l85 33c5 2 5 9 0 11l-85 33a28 28 0 0 1-20 0L24 67c-5-2-5-9 0-11Z" fill="url(#topLayer)" />

		<path d="M27 85 114 117a26 26 0 0 0 18 0l77-29" stroke="#FFF" stroke-linecap="round" stroke-linejoin="round" stroke-width="10" />

		<path d="M18 87c0-3 3-5 6-4l90 33a24 24 0 0 0 17 0l82-31c4-1 7 1 7 4v11c0 3-2 6-5 7l-84 32a28 28 0 0 1-19 0l-89-32c-3-1-5-4-5-7V87Z" fill="url(#midLayer)" />

		<path d="M28 126 115 158a26 26 0 0 0 18 0l76-29" stroke="#FFF" stroke-linecap="round" stroke-linejoin="round" stroke-width="10" />

		<path d="M18 128c0-3 3-5 6-4l90 33a24 24 0 0 0 17 0l82-31c4-1 7 1 7 4v14c0 3-2 6-5 7l-84 32a28 28 0 0 1-19 0l-89-32c-3-1-5-4-5-7v-16Z" fill="url(#bottomLayer)" />

		<path d="M175 109h34c9 0 16 7 16 16v62c0 9-7 16-16 16h-43c-9 0-16-7-16-16v-47c0-4 1-7 4-10l21-18Z" fill="url(#tagFill)" />
		<path d="M177 109 150 133h14c7 0 13-6 13-13v-11Z" fill="#2C7B18" />
		<circle cx="171" cy="130" r="5" fill="#EAF7D8" opacity="0.95" />
		<text x="188" y="166" fill="#FFF" font-family="Segoe UI, Arial, sans-serif" font-size="76" font-weight="700" text-anchor="middle">$</text>
	</g>
</svg>