<svg xmlns="http://www.w3.org/2000/svg" xml:space="preserve" viewBox="0 0 1024 1024"><path d="M580 1025H1V1h1024v1024zM458.16 801.8c1.02.02 2.03.05 3.23.25 0 0 .21-.12.64.62 1.64.1 3.27.2 5.29 1.02 15.03 2.42 30.03 5.79 45.39 3.28 9.49-1.56 19.32-2.45 28.26-5.67 25.59-9.22 50.8-19.5 76.2-29.24.94-.36 2.4.66 3.79 1.9.08 2.35.15 4.7.1 7.98q-.06 41.85-.05 83.71c0 1.17.62 2.34 1 4.33.4 14.76 16.2 30.76 31.14 30.83.32.08.65.23.97.23q132.74-.02 265.48-.1c1.17 0 2.35-.6 4.38-.93 12.69.2 27.29-9.26 30.82-24.02 2.11-8.79 2.1-18.21 2.12-27.35.14-99.06.13-198.12.08-297.18 0-10.82-2.56-20.93-9.48-29.69-3.18-4.02-5.8-8.48-8.53-13.66-.05-20.37-.1-40.74-.01-62.04-.04-32.01-.08-64.02.02-96.78.04-.76.08-1.51.56-2.4.31-.2.42-.46.47-1.75 0-26.8.03-53.6-.03-80.39 0-1.34-.65-2.67-1-4.36 0 0-.14-.32 0-1.06-.33-.85-.66-1.7-1.02-2.88 0 0-.12-.33.03-1.07l-2.32-4.23c-1.9-2.62-3.42-5.68-5.78-7.78-10.67-9.53-24.46-12.96-37.27-18.13-10.72-4.32-22.08-7.06-32.94-11.08-20.31-7.52-40.44-15.54-60.7-23.2-10.08-3.8-20.3-7.26-30.45-10.88-8.2-2.92-16.4-5.9-24.63-8.76-3.8-1.32-7.73-2.28-11.5-3.66-5.7-2.08-11.26-4.52-16.97-6.55-7.3-2.6-14.74-4.81-22.02-7.43-11.49-4.14-22.88-8.54-34.35-12.7-11.22-4.07-22.53-7.84-33.71-11.98-8.39-3.1-16.55-6.82-24.96-9.85-12.88-4.64-25.9-8.9-38.85-13.36-8.2-2.83-16.38-5.76-25.24-9.02-6.73-1.26-13.47-2.52-20.62-4.57-8.36-.09-16.72-.2-25.07-.22-.63 0-1.25.69-2.71 1.01-5.12.92-10.39 1.32-15.3 2.87-9.57 3-18.9 6.7-28.39 9.99-15.09 5.23-30.28 10.17-45.31 15.56-15.55 5.58-30.92 11.61-46.41 17.34a5930 5930 0 0 1-44.21 16.08c-16.48 5.95-33 11.76-49.46 17.75-18.42 6.7-36.78 13.58-55.18 20.33-12.78 4.7-25.6 9.26-38.36 13.96-13.5 4.97-26.94 10.05-40.41 15.06-18.09 6.74-36.26 13.26-54.22 20.3-8.38 3.27-17.15 13.46-17.48 23.93.33 31.3.67 62.6.82 94.68-.28 8.7-.56 17.42-1 27.06l.02 15.44c.03 37.85.06 75.7.18 114.28.32 1.14.64 2.28.81 4.2.04 1.05.08 2.1.04 3.67.03.18.06.35.06 1.05l.81.53s-.04.05 0 .93c.03 2.94.06 5.88-.67 9.3-.08.49-.24.98-.24 1.46q-.05 46.72-.02 93.43c0 1 .66 2 .96 3.8 2.3 15.1 11.69 24.57 25.16 29.89 14.78 5.82 30 10.54 44.96 15.9 19.55 7 39.02 14.25 58.58 21.23 16.65 5.95 33.41 11.54 50.05 17.5 28.97 10.37 57.88 20.9 86.81 31.38 13.58 4.91 27.11 9.95 40.7 14.81 27.3 9.76 54.62 19.43 82.3 29.16 0 0 .38-.06.27.05 0 0 .11.1.45.8 4.6 1.49 9.2 2.97 13.77 4.34 0 0-.12.04.15.75"/><path fill="#6ab284" d="M621.19 781c-.08-2.34-.15-4.69-.29-7.94-.11-4.77-.17-8.65-.17-12.95.1-33 .16-65.57.22-98.6l-.07-10.43c0-23.28 0-46.11.02-69.42l-.02-9.37c.04-7.43.16-14.4.06-21.38a45.2 45.2 0 0 1 9.02-27.98c9.26-12.55 19.18-24.6 28.66-37 6.43-8.42 12.58-17.07 19.05-25.75 3.58-4.5 6.96-8.88 10.36-13.42.02-.18.06-.53.38-.65 2.32-2.33 4.45-4.43 6.28-6.76 9.16-11.61 20.9-17.74 35.87-17.39 6.67.16 13.34-.1 20 .01 3.41.06 4.97-1.22 5.76-4.68 1.99-8.75 6.4-16.18 14.24-20.89 4.06-2.44 5.6-5.34 5.52-10.09-.16-9.35 6.24-15.5 15.23-15.4 9.03.11 14.68 6.38 14.1 16.06-1.67 0-2.96 0-4.3-.38-1.3-7.74-4.92-11.1-11.04-10.57-5.98.5-8.88 4.2-8.97 11.58-.07 5.83 0 11.66 0 17.48-.01 22.64-.11 45.28-.02 67.92.03 6.28 3.98 10.01 9.98 10.1 5.88.1 9.65-3.72 9.92-10.1.1-1.99.12-3.99.51-6.08 3.98-1.12 5.35-3.8 5.9-7.2 4.14 4.16 9.27 7.57 11.53 12.34 10.18 21.56-5.43 44.03-29.57 42.93-12.52-.58-21.34-7.4-26.05-18.78-4.58-11.06-3.51-22.46 5.22-30.6 6.63-6.19 8.28-12.52 7.52-20.62-.25-2.64-.21-5.34.03-7.99.42-4.51-1.3-6.19-5.95-6.1q-19.75.34-39.49 0c-11.97-.21-21.24 4.82-28.47 13.95-8.7 10.96-17.21 22.06-25.8 33.11-11.74 15.13-23.23 30.46-35.32 45.3-6.82 8.38-11.01 17.43-11.02 28.22-.04 103.64-.08 207.28 0 310.92.01 17.67 11.31 28.68 28.93 28.68q129.72.04 259.44.03c17.63 0 29.51-11.84 29.6-29.43.06-13.67 0-27.33 0-41 0-88.14-.05-176.29.08-264.43.02-12.73-3.47-23.85-11.85-33.53-5-5.8-9.67-11.89-14.37-17.94-16.04-20.64-31.89-41.44-48.1-61.94-6.06-7.65-14.28-11.85-24.3-11.85-12.5 0-25 .19-37.5-.05-4.59-.09-6.5 1.54-6.4 6.13-1.67.35-3.02.62-4.4.43 0-8.8.02-17.14.4-25.44 1.65.34 2.98.65 4.34 1.4.25 8.36.25 8.36 7.97 8.44 2.66.03 5.3 0 8.3.09 1.83.06 3.33.04 5.2.04 1.13.06 1.88.1 2.73.32.71.06 1.31-.05 2.36-.2 2.83-.04 5.21-.05 7.82.07 1.05.03 1.88-.06 3.1-.17 1.5 0 2.58 0 4.01.19 2.19.31 4.03.46 6.29.58 5.28 1.43 11 1.74 14.84 4.58 6.84 5.04 12.9 11.28 18.62 17.62 6.64 7.35 12.57 15.34 18.91 23.38 2.02 2.74 3.93 5.15 5.96 7.9 6.06 7.83 12 15.33 18.05 23.17 3 3.4 5.9 6.48 8.8 9.55 2.88 4.27 5.5 8.73 8.67 12.75 6.92 8.76 9.47 18.87 9.48 29.69.05 99.06.06 198.12-.08 297.18-.02 9.14-.01 18.56-2.12 27.35-3.53 14.76-18.13 24.22-31.73 24.01-36.89.03-72.88.1-108.87.09q-80.72-.03-161.44-.11c-14.56.76-30.36-15.24-30.75-30.89 0-27.5 0-54.1-.06-80.7 0-2.46-.5-4.92-.76-7.38m190.05-287.87c3.26-9.78 1.44-18.15-4.69-21.51-2.1 11.02-5.91 15.9-13.55 16.25-3.17.14-7.38-.03-9.4-1.9-3.84-3.58-6.45-8.48-9.77-13.11a19.5 19.5 0 0 0-3.05 17.34c2 6.66 5.56 12.47 13.66 14.6 9.88 5.23 22.14.15 26.8-11.67m-35.2-75.92v-16.88c-6.05 1.8-9.89 5.15-12.41 10.76-5.23 11.6-2.51 11.01 6.86 10.87.5 0 1.16.2 1.46-.05a19 19 0 0 0 4.08-4.7"/><path fill="#83b358" d="M911.88 475.97c-1.9-2.42-3.82-4.83-5.5-7.73 16.86-4.75 24.36-17.69 23.8-34.58-.7-21.3-.21-42.63-.32-63.95-.01-2.29-.54-4.57-.7-7.2 1.07-4 1.58-7.46-3.25-8.93 1.78-5.46 4.64-10.54 4.84-15.72.62-15.42.2-30.89.17-46.33 0-1.74-.16-3.47-.26-5.55-1.8.91-2.96 1.5-4.5 2a44 44 0 0 1-6.06-5.56c1.09-1.02 1.98-1.77 2.83-2.56 10.2-9.6 10.25-21.27-.78-29.98a69 69 0 0 0-18.64-10.34c-42.94-15.87-86.04-31.32-129.08-46.93-43.5-15.78-86.95-31.74-130.54-47.32-40.89-14.6-81.92-28.82-122.85-43.54.98-1.24 1.89-2.85 2.86-2.9 3.65-.13 7.32.37 10.98.33.72 0 1.41-1.32 2.12-2.03 8.18 2.88 16.36 5.8 24.56 8.64 12.94 4.47 25.97 8.72 38.85 13.36 8.4 3.03 16.57 6.74 24.96 9.85 11.18 4.14 22.5 7.91 33.7 11.98 11.48 4.16 22.87 8.56 34.36 12.7 7.28 2.62 14.72 4.83 22.02 7.43 5.7 2.03 11.27 4.47 16.96 6.55 3.78 1.38 7.71 2.34 11.51 3.66 8.23 2.86 16.42 5.84 24.63 8.76 10.15 3.62 20.37 7.08 30.45 10.89 20.26 7.65 40.39 15.67 60.7 23.2 10.86 4.01 22.22 6.75 32.94 11.07 12.81 5.17 26.6 8.6 37.27 18.13 2.36 2.1 3.87 5.16 5.93 8.44.77 1.88 1.4 3.1 2.02 4.3 0 0 .12.34.14.85.3 1.39.58 2.25.86 3.11 0 0 .13.32.1.98 0 27.01.02 53.36.1 79.7 0 1.78.53 3.55.81 5.33.1.35 0 .62-.69 1.1-.35 1.15-.33 2-.32 2.86.04 32 .08 64.02-.25 96.65-.94 2.05-2.07 3.5-2.03 4.9.35 11.02.94 22.03 1.38 33.05.06 1.36-.33 2.75-.72 5.68-3-3.53-5.06-5.94-7.14-8.76-.02-1.8 0-3.17.25-4.68.07-1.05-.09-1.97-.27-3.31-.03-2.67-.03-4.91-.03-7.23z"/><path fill="#83b45f" d="M620.68 760.54c.05 3.87.1 7.75.14 12.09-1.24.1-2.71-.93-3.65-.57-25.4 9.74-50.61 20.02-76.2 29.24-8.94 3.22-18.77 4.11-28.26 5.67-15.36 2.5-30.36-.86-45.96-3.76a29 29 0 0 0-5.15-1.28s-.21.12-.59-.2c-1.3-.42-2.2-.53-3.12-.64 0 0 .12-.04-.1-.25a589 589 0 0 0-13.89-4.82s-.11-.1-.01.1c-.18.03-.46-.13-.74-.29-27.31-9.7-54.63-19.37-81.92-29.13-13.6-4.86-27.13-9.9-40.7-14.81-28.94-10.49-57.85-21-86.82-31.38-16.64-5.96-33.4-11.55-50.05-17.5-19.56-6.98-39.03-14.23-58.58-21.23-14.97-5.36-30.18-10.08-44.96-15.9-13.47-5.32-22.86-14.8-25.1-30.77.05-9.3.05-17.7.38-26.05a90 90 0 0 1 7.83 7.37c.26 5.25.13 10.11.7 14.9 1.34 11.4 6.76 20.14 17.7 24.63 5.85 2.4 11.89 4.34 17.84 6.48l150.55 53.88L449 787.55c13.2 4.73 26.54 9.07 40.64 9.86 6.75.38 13.56-.31 20.79-.47 10.64-2.05 21.26-3.02 30.99-6.46 26.61-9.43 52.86-19.89 79.25-29.94"/><path fill="#82b157" d="M536.66 96.96c-.37.9-1.06 2.22-1.78 2.22-3.66.04-7.33-.46-10.98-.32-.97.04-1.88 1.65-3.3 2.89-21.77-2.68-42.27.48-62.31 7.9-32.18 11.91-64.42 23.64-96.66 35.4q-64.53 23.51-129.1 46.98c-41.33 15.01-82.7 29.91-123.98 45.05-11.55 4.24-23.2 8.45-34.18 13.93-11.83 5.92-14.11 13.77-10.05 26.09-3.72.26-7 .58-10.34.44 0-4.22.03-7.97.06-11.73-.52-10.12 8.25-20.3 16.63-23.59 17.96-7.03 36.13-13.55 54.22-20.29 13.47-5.01 26.92-10.09 40.4-15.06 12.77-4.7 25.6-9.27 38.37-13.96 18.4-6.75 36.76-13.62 55.18-20.33 16.46-6 32.98-11.8 49.46-17.75 14.75-5.32 29.5-10.65 44.2-16.08 15.5-5.73 30.87-11.76 46.42-17.34 15.03-5.4 30.22-10.33 45.31-15.56 9.48-3.28 18.82-7 28.38-10 4.92-1.54 10.2-1.94 16.21-2.77 9.7.02 18.5-.04 27.3-.1 6.73 1.27 13.47 2.53 20.54 3.98"/><path fill="#83b358" d="M53.17 386.96c.28-8.7.56-17.41 1.13-26.83.4-4.5.52-8.3.97-12.22 2.74-2.39 5.15-4.65 7.6-6.49 1.49 5.12 2.91 9.81 3.97 14.6-2.38 1.14-4.78 1.8-6.31 3.33-2.7 2.7-1.62 5.33 2.36 7.12.05 23.96-.16 47.46.22 70.95.1 6.19 2.01 12.35 2.72 18.5-1-.2-1.7-.23-2.25-.53-6.71-3.6-7.36-3.1-7.66 4.84-.1 2.94-1.1 5.84-1.75 8.3-.12-25.57-.16-50.66-.27-75.76-.01-1.94-.48-3.87-.73-5.8"/><path fill="#7bb764" d="M63.15 616.01c-2.47-2.3-4.94-4.58-7.77-7.41-.36-24.29-.36-48.04-.36-71.78-.03-2.94-.06-5.88.3-9.29 3.1-.83 5.8-1.18 8.67-1.22 2.66 6.93 6.85 12.11 12.93 15.92-2.4 4.19-4.46 1.9-6.95.4-1.7-1.02-4.5-2.1-5.9-1.38-4.8 2.45-5.2 12.06-.96 16.21.06 19.83.05 39.19.04 58.55"/><path fill="#83b358" d="M63.83 525.99c-2.7.36-5.4.71-8.52 1.1-.42.03-.38-.02-.49-.19a8 8 0 0 0-.66-.89c-.04-.17-.07-.34.08-1.04.1-1.66.01-2.8-.07-3.93a17 17 0 0 1-.74-4.1c.4-10.1.58-19.52 1.1-28.86 2.96-.3 5.58-.7 8.25-.63.39 13.16.72 25.85 1.05 38.54"/><path fill="#a1cab2" d="M652.95 900.4c53.62-.38 107.44-.32 161.25-.31 35.99 0 71.98-.06 108.45-.09-.7.33-1.88.94-3.05.94q-132.75.08-265.48.1c-.32 0-.65-.15-1.17-.65"/><path fill="#81b563" d="m930.13 481.97 7.11 8.35c.4-2.93.78-4.32.72-5.68-.44-11.02-1.03-22.03-1.38-33.05-.04-1.4 1.09-2.85 1.96-4.44.35 20.22.4 40.59.38 61.41a67 67 0 0 1-8.87-9.58c-.03-6.21.03-11.61.08-17"/><path fill="#b9d3a4" d="M54.2 488c-.19 9.42-.37 18.84-.82 28.58-.3-37.54-.32-75.39-.35-113.24 0-5.14-.01-10.3.06-15.9.33 1.46.8 3.4.8 5.33.12 25.1.16 50.2.24 76.22z"/><path fill="#b4cc99" d="M54.94 348.03c-.12 3.8-.24 7.6-.55 11.7-.53-30.98-.87-62.28-.78-93.75.4 3.59.36 7.34.34 12.02.07 5.62.15 10.31.17 15.47-.02 8.12 0 15.78-.02 23.87.03 2.18.1 3.93.13 6.14.2 8.5.46 16.52.71 24.55"/><path fill="#9dbd8a" d="M54.64 537.06c.38 23.5.38 47.25.4 71.46.03 8.88.03 17.3 0 26.19a4.7 4.7 0 0 1-1.04-2.52q-.03-46.7.02-93.43c0-.48.16-.97.62-1.7"/><path fill="#7db192" d="M621.12 781.47c.33 2 .82 4.46.83 6.92.06 26.6.05 53.2.04 80.29-.36-.69-.98-1.86-.98-3.03-.02-27.9.02-55.8.11-84.18"/><path fill="#8dac70" d="M939.95 345.6c-.36-1.3-.9-3.07-.9-4.84-.07-26.35-.08-52.7-.07-79.54.37.86 1.02 2.2 1.02 3.53.06 26.8.04 53.6-.05 80.86"/><path fill="#abc291" d="M515.91 92.6c-8.59.44-17.39.5-26.67.5.14-.43.76-1.12 1.39-1.12 8.35.02 16.71.13 25.28.61"/><path fill="#cbdab8" d="M444.07 796.36q6.58 1.82 13.75 4.55a154 154 0 0 1-13.75-4.55"/><path fill="#8dac70" d="M937.94 255.75a13 13 0 0 1-1.93-3.65 13 13 0 0 1 1.93 3.65"/><path fill="#cbdab8" d="M461.82 802.3c1.31-.1 2.84.17 4.74.55-1.26.02-2.9-.08-4.74-.55"/><path fill="#7bb764" d="M54.1 521.43c.15.74.24 1.88.18 3.27-.18-.78-.22-1.83-.18-3.27"/><path fill="#cbdab8" d="M458.02 801.44c.78-.24 1.7-.13 2.9.2a5 5 0 0 1-2.9-.2"/><path fill="#8dac70" d="M938.93 349.66c-.08-.48-.1-1.33.03-2.41.12.53.08 1.28-.03 2.41M938.93 259.7a8 8 0 0 1-.91-2.56c.32.5.65 1.34.9 2.56"/><path fill="#cbdab8" d="M443.34 795.85c.09.14.37.3.6.2-.04-.25-.42-.2-.6-.2"/><path fill="#7bb764" d="M54.14 526.28c.22-.04.4.2.71.64-.16 0-.44-.19-.71-.64"/><path fill="#87dba9" d="M805.88 436.98c-.44-4.5 1.48-6.13 6.08-6.04 12.49.24 24.99.06 37.48.05 10.03 0 18.25 4.2 24.3 11.85 16.22 20.5 32.07 41.3 48.11 61.94 4.7 6.05 9.36 12.15 14.37 17.94 8.38 9.68 11.87 20.8 11.85 33.53-.13 88.14-.07 176.29-.08 264.44 0 13.66.06 27.32 0 40.99-.09 17.59-11.97 29.42-29.6 29.43q-129.72.01-259.44-.03c-17.62 0-28.92-11.01-28.93-28.68-.08-103.64-.04-207.28 0-310.92 0-10.79 4.2-19.84 11.02-28.21 12.09-14.85 23.58-30.18 35.33-45.3 8.58-11.06 17.1-22.16 25.79-33.12 7.23-9.13 16.5-14.16 28.47-13.95q19.74.34 39.5 0c4.64-.09 6.36 1.59 5.94 6.1a43 43 0 0 0-.03 8c.76 8.1-.9 14.42-7.52 20.6-8.73 8.15-9.8 19.55-5.22 30.61 4.71 11.38 13.53 18.2 26.05 18.78 24.14 1.1 39.75-21.37 29.57-42.93-2.26-4.77-7.39-8.18-11.7-12.67-.8-7.78-1.06-15.1-1.34-22.4m.34 158.91c-.59-1.57-1.61-3.12-1.69-4.71-.26-5.32-.25-10.66-.21-16 .02-3.07-1.11-4.58-4.4-4.53a298 298 0 0 1-15.48-.2c-2.99-.1-3.67 1.45-3.64 4.02.07 5.83-.1 11.67.07 17.5.1 3.22-.86 4.91-4.34 5.25-3.3.32-6.58 1.07-9.78 1.95-20.83 5.73-37.3 16.45-44.72 38.1-7.74 22.58-.24 45.97 19.47 59.4 10.33 7.04 21.84 11.35 33.81 14.5 3.93 1.04 5.76 2.73 5.65 7.2-.32 13.32-.3 26.65-.05 39.98.09 4.67-1.52 5.7-5.89 5.04a107 107 0 0 1-34.88-11.64c-4.32-2.33-8.54-4.84-13.24-7.5-4.49 10.15-8.8 19.69-12.85 29.33-.4.94.42 2.9 1.29 3.74 1.52 1.48 3.47 2.55 5.33 3.66A121 121 0 0 0 776 798c3.6.23 5.02 1.52 4.89 5.16-.22 5.99 0 12-.19 17.98-.1 3.5 1.33 4.75 4.73 4.63 4.66-.17 9.34-.22 14 .04 4.05.24 5.28-1.6 5.15-5.32-.17-4.82-.02-9.66-.15-14.49-.25-9.77-.1-7.67 7.6-9.23 24.75-5 45.19-15.95 52.95-42 6.27-21.05.65-43.03-18.9-56.57-11.27-7.81-24-12.22-37.02-15.86-3.5-.97-4.8-2.7-4.75-6.32a1669 1669 0 0 0-.06-40.98c-.05-4.13 1.57-5.64 5.37-4.6 8.96 2.46 17.96 4.84 26.77 7.78 4.17 1.39 7.94 3.98 12.52 6.35 3.84-9.13 7.44-18.05 11.35-26.82 1.78-3.99.97-6.19-2.92-8.31-15.7-8.6-32.78-11.83-51.12-13.55"/><path fill="#b5d981" d="M688.09 446.23s-.04.35-.43.61c-2.87 1.2-5.36 2.15-7.85 3.09-44.54 16.75-88.95 33.88-133.73 49.97-11.39 4.1-23.97 4.89-36.02 6.72-.03-19.39 0-38.3-.1-57.2-.02-2.58-.79-5.15-1.15-7.91.06-.18.2-.53.65-.49 1.28.06 2.12.11 2.95.07 16.49-.87 31.93-5.75 47.26-11.61 36.37-13.92 72.9-27.42 109.37-41.07a4412 4412 0 0 1 65.87-24.18c-3.22 7.49-.24 14.12 1.8 20.66 1.71 5.53 1.93 12.53 10.2 13.4.94.1 2.27 2.21 2.3 3.41.01.85-1.94 1.67-2.9 2.61-1.53 1.5-2.97 3.1-4.83 5.06 3.43 1.03 5.73 1.25 7.43 2.37 1.64 1.06 2.66 3.06 3.95 4.65-1.7 1.2-3.33 3.32-5.08 3.42-6.8.37-13.72.79-20.4-.15-5.58-.78-10.17.82-14.82 2.93a51 51 0 0 0-9.03 5.25c-6.62 4.84-12.37 10.51-15.44 18.39"/><path fill="#abc796" d="M677.47 460.32c-6.27 8.54-12.42 17.19-18.85 25.61-9.48 12.4-19.4 24.45-28.66 37a45.2 45.2 0 0 0-9.02 27.98c.1 6.97-.02 13.95-.44 21.45-1.68.87-3 1.11-4.24 1.58-24.1 9.17-48.03 18.86-72.39 27.32-10.87 3.77-22.6 5.09-33.95 7.06.03-30.75.07-61.04.47-91.44 2.48-.42 4.58-.73 6.89-1.03.2 0 .62-.07 1.01-.09 2.5-.34 4.6-.66 7.03-.97 1.1-.24 1.9-.5 3.1-.76 9.32-2.64 18.42-4.77 27.12-8 40.7-15.07 81.3-30.44 121.93-45.71"/><path fill="#b3d783" d="M688.41 446.1c2.75-7.75 8.5-13.42 15.12-18.26a51 51 0 0 1 9.03-5.25c4.65-2.11 9.24-3.71 14.81-2.93 6.7.94 13.62.52 20.41.15 1.75-.1 3.39-2.23 5.08-3.42-1.3-1.59-2.31-3.59-3.95-4.65-1.7-1.12-4-1.34-7.43-2.37 1.86-1.96 3.3-3.56 4.82-5.06.97-.94 2.92-1.76 2.9-2.6-.02-1.2-1.35-3.32-2.3-3.42-8.26-.87-8.48-7.87-10.2-13.4-2.03-6.54-5-13.17-1.5-20.84 7.7-3.34 15.01-6.12 22.33-8.88 47.8-18 95.67-35.86 143.37-54.15 8.9-3.41 17.11-8.59 25.64-12.95l4.12-2.09c.1 2.08.25 3.81.26 5.55.03 15.44.45 30.9-.17 46.33-.2 5.18-3.06 10.26-5.1 15.92-4.27 3.01-7.87 6.24-12.1 7.86a7945 7945 0 0 1-97.8 36.64c-4.92-2.68-10.75-4.16-9.97-11.32.21-9.67-5.44-15.94-14.47-16.05-8.99-.1-15.39 6.05-15.23 15.4.09 4.75-1.46 7.65-5.52 10.1-7.84 4.7-12.25 12.13-14.24 20.88-.79 3.46-2.35 4.74-5.76 4.68-6.66-.12-13.33.15-20 0-14.97-.36-26.71 5.77-35.87 17.38-1.83 2.33-3.96 4.43-6.28 6.76"/><path fill="#b4d6bc" d="M620.73 760.1c-26.44 10.49-52.69 20.95-79.3 30.38-9.73 3.44-20.35 4.41-31.01 6-.46-33.45-.46-66.39-.04-99.4a146 146 0 0 0 40.58-9.3c18.1-7.04 36.27-13.9 54.46-20.73 5.1-1.9 10.34-3.4 15.52-5.08-.05 32.57-.1 65.14-.21 98.14"/><path fill="#a8d4a6" d="M620.88 582.13c0 22.84 0 45.67-.38 69.06-2.28 1.18-4.2 1.74-6.06 2.46-23.2 8.84-46.19 18.26-69.65 26.34-11.19 3.85-23.26 5.15-34.9 7.16.02-23.23.02-46.02.45-68.9 5.2-.74 10.2-.73 14.71-2.2a2576 2576 0 0 0 57.04-19.52c13-4.6 25.87-9.59 38.79-14.4"/><path fill="#abc698" d="M929.03 362.85c.3 2.29.82 4.57.83 6.86.1 21.32-.38 42.65.32 63.95.56 16.9-6.94 29.83-23.91 34.26-6.57-7.56-12.5-15.55-19.14-22.9-5.72-6.34-11.78-12.58-18.62-17.62-3.85-2.84-9.56-3.15-15.2-4.75-2.61-.3-4.44-.44-6.27-.58l-4.03-.05c-1.5.02-2.23.05-2.97.08l-7.92.02-2.13.05c-.75-.04-1.5-.08-2.68-.53-2-5.65-3.59-10.9-4.79-16.22 2.29-.7 4.22-1.21 6.08-1.92 23.78-8.95 47.59-17.85 71.31-26.95 10.03-3.85 20.74-6.33 29.12-13.7"/><path fill="#a8e8b8" d="M801.16 467.02c-.06 2-.09 4-.18 5.99-.27 6.37-4.04 10.2-9.92 10.1-6-.1-9.95-3.83-9.98-10.1-.1-22.65 0-45.29.02-67.93 0-5.82-.07-11.65 0-17.48.09-7.39 3-11.07 8.97-11.58 6.12-.53 9.74 2.83 11 11.04l.14 24.96-.11 25.95c.01 10.3.04 19.68.06 29.05"/><path fill="#7cb14a" d="M525 514.78c-2.1.32-4.2.64-6.8.95-.73-.04-.94 0-1.13.11-2.1.31-4.2.62-7.14.97-6.87-.24-12.9-.52-19.27-.98a22 22 0 0 0-4.58-.59c-1.95-.02-3.53-.2-5.2-.67.93-1.4 1.77-2.79 3-3.57 2.26-1.42 4.74-2.48 7.56-3.72 6.5-.08 12.56-.13 18.64-.18 12.03-2.31 24.61-3.1 36-7.2 44.78-16.09 89.19-33.22 133.73-49.97 2.49-.94 4.98-1.89 7.83-2.91a288 288 0 0 1-9.97 13.16c-40.83 15.4-81.43 30.78-122.13 45.86-8.7 3.22-17.8 5.35-27.35 7.85a12 12 0 0 0-3.19.89"/><path fill="#73b466" d="M509.86 687.6c11.67-2.46 23.74-3.76 34.93-7.61 23.46-8.08 46.45-17.5 69.65-26.34 1.86-.72 3.78-1.28 6.05-2.02.41 3.07.44 6.25.46 9.88-5.19 2.14-10.44 3.63-15.53 5.54a4847 4847 0 0 0-54.46 20.73 143 143 0 0 1-41.04 9.24c-8.23-.34-15.57-.69-22.62-1.2 1.86-1.1 3.43-2 5-2.92l-.44-1.3c-6.75-1.23-13.38.01-20.35 1.66a56 56 0 0 1-4.84-1.48c-.95-.34-1.6-.52-2.55-.65a7 7 0 0 1-3-1.29 86 86 0 0 1 8.37-6.17c13.57 2.96 26.8 5.11 40.37 3.92"/><path fill="#7cb14f" d="M620.9 581.66a869 869 0 0 1-38.8 14.87 2576 2576 0 0 1-57.05 19.51c-4.5 1.48-9.5 1.47-14.94 2.1-.83-.1-.99-.18-1.26-.3-.36-.11-.6-.08-1.23.13-1.82.04-3.22.02-4.84-.3-3.82-2.26-7.36-2.63-11.12.14a10 10 0 0 1-3.8-.84c.07-3.01.15-5.63.45-8.24.22 0 .65.14.84.38 1.4.16 2.63.08 4.32-.04 5.8-.13 11.12-.21 16.45-.3 11.35-2.42 23.08-3.74 33.95-7.51 24.36-8.46 48.28-18.15 72.4-27.32 1.23-.47 2.55-.71 4.2-1.13.4 2.75.43 5.57.43 8.85"/><path fill="#a8c69a" d="M784.03 504.27c-7.7-1.6-11.24-7.4-13.25-14.06a19.5 19.5 0 0 1 3.05-17.34c3.32 4.63 5.93 9.53 9.77 13.1 2.02 1.88 6.23 2.05 9.4 1.9 7.64-.35 11.44-5.22 13.55-16.24 6.13 3.36 7.95 11.73 4.19 21.96-9.24 3.86-17.98 7.27-26.71 10.68"/><path fill="#a3cc9c" d="M930.1 481.56c-.02 5.81-.08 11.21-.14 17.1A640 640 0 0 1 912 476.3c5.7-3.41 11.52-6.5 18.05-9.96l-.01 7.6c.02 1.56.05 2.31.08 3.07-.02 1.38-.04 2.76-.02 4.55"/><path fill="#75b686" d="M801.54 412.06c-.38-8.07-.42-16.1-.42-24.61 1.33-.47 2.62-.47 4.28-.48-.4 7.15 5.43 8.63 10.45 11.6 2.4 2.57 4.34 4.75 6.29 6.94 1.58 5.24 3.17 10.48 4.8 16.11a9 9 0 0 1-4.76-.02c-1.82-11.28-8.41-20.32-16.33-21.51v12.93c-1.32-.31-2.65-.62-4.3-.96"/><path fill="#97dcac" d="M805.89 413.46c-.04-4.72-.04-9-.04-13.37 7.92 1.19 14.51 10.23 15.99 21.43-2.67.38-5.32.4-7.98.38-7.72-.08-7.72-.08-7.97-8.44"/><path fill="#91d9a6" d="M776.03 417.68a28 28 0 0 1-4.08 4.24c-.3.25-.97.04-1.46.05-9.37.14-12.09.74-6.86-10.87 2.52-5.61 6.36-8.97 12.4-10.76z"/><path fill="#72ba8b" d="M801.49 466.92c-.35-9.27-.38-18.65-.35-28.49 1.4-.74 2.74-1 4.41-1.36.6 7.23.88 14.54 1.32 22.2-.03 3.85-1.4 6.53-5.38 7.65"/><path fill="#7eb25e" d="M784.24 504.54a743 743 0 0 1 26.35-10.6c-4.01 11.02-16.27 16.1-26.35 10.6"/><path fill="#75b686" d="M847.38 422.24a36 36 0 0 1 5.51.43 36 36 0 0 1-5.5-.43M830.1 422.35c.34-.2.79-.21 1.57-.2-.27.15-.87.26-1.58.2M840.27 422.22c.5-.15 1.24-.18 2.33-.18-.45.12-1.28.21-2.33.18"/><path fill="#cdf58a" d="M64.75 277.16c-4.5-12.38-2.2-20.23 9.62-26.15 10.97-5.48 22.63-9.7 34.18-13.93 41.28-15.14 82.65-30.04 123.97-45.05q64.58-23.47 129.11-46.99c32.24-11.75 64.48-23.48 96.66-35.39 20.04-7.42 40.54-10.58 62.27-7.56 41.41 14.38 82.44 28.6 123.33 43.2 43.59 15.58 87.03 31.54 130.54 47.32 43.04 15.6 86.14 31.06 129.08 46.93a69 69 0 0 1 18.64 10.34c11.03 8.7 10.98 20.38.78 29.98-.85.8-1.74 1.54-3.11 2.77-4.94 2.77-9.38 5.1-14.1 7.43-.79.28-1.29.54-2.16.87-44.33 16.58-88.28 33.1-132.25 49.61l-132.83 49.85c-30.09 11.3-59.98 23.18-90.36 33.65-12.9 4.44-26.8 5.94-40.67 8.72-2.4 0-4.37.04-6.66.06-.51-.02-.71 0-1.34-.07-14.9-1.34-29.07-4.02-42.8-9-23-8.36-46.06-16.55-69.1-24.78-43.58-15.55-87.23-30.9-130.74-46.67a36453 36453 0 0 1-184.97-67.7c-2.48-2.29-4.75-4.31-6.95-6.52.08-.45.01-.7-.14-.92"/><path fill="#7cb149" d="M906 290.04c4.44-2.32 8.88-4.64 13.6-7.17 2.25 1.54 4.21 3.28 6.56 5.12-8.15 4.44-16.36 9.62-25.26 13.03-47.7 18.29-95.56 36.14-143.37 54.15-7.32 2.76-14.63 5.54-22.24 8.49-22.28 8.37-44.27 16.53-66.25 24.75-36.47 13.65-73 27.15-109.37 41.07-15.33 5.86-30.77 10.74-47.26 11.61a7 7 0 0 1-2.91-.42c.24-3.06 2.4-5.96-1.63-7.85 13.45-2.84 27.36-4.34 40.25-8.78 30.38-10.47 60.27-22.35 90.36-33.65l132.83-49.85c43.97-16.5 87.92-33.03 132.45-49.5a7 7 0 0 0 2.24-1"/><path fill="#7fb24f" d="M822.52 405.42a60 60 0 0 1-6.3-6.75c32.4-12.5 64.92-24.6 97.34-37.03 4.22-1.62 7.82-4.85 11.96-7.53 5.22.94 4.71 4.4 3.65 8.4-8.52 7.7-19.23 10.2-29.26 14.04-23.72 9.1-47.53 18-71.3 26.95-1.87.7-3.8 1.22-6.09 1.92"/><path fill="#81b563" d="M930.35 476.88a7 7 0 0 1-.28-2.51c.2.54.35 1.46.28 2.5"/><path fill="#c9f2d3" d="m460.94 690.15 3.43 1.22c1.24.32 1.92.44 2.6.56 1.39.44 2.78.88 4.86 1.51 5.52.99 10.35 1.77 15.18 2.55 7.34.34 14.68.69 22.49 1.1.46 33 .46 65.94.48 99.34-6.77.67-13.58 1.36-20.33.98-14.1-.79-27.44-5.13-40.64-9.86l-199-71.23-150.54-53.88c-5.95-2.14-11.99-4.08-17.83-6.48-10.95-4.5-16.37-13.24-17.71-24.64-.57-4.78-.44-9.64-.7-14.89-.07-19.78-.06-39.14-.04-59.41v-12.79c6.86 3.21 12.26 6.24 17.99 8.34 40 14.65 80.09 29.1 120.14 43.63q106.07 38.5 212.16 76.96c15.8 5.73 31.64 11.33 47.46 16.99"/><path fill="#83b358" d="M64.32 277.1c.58.28.65.53.27 1.34-.78 2.22-1.19 3.9-1.77 5.86-1.77 4.34-3.87 7.87-8.65 8.7-.07-4.69-.15-9.38-.18-14.53a63 63 0 0 1 10.33-1.37"/><path fill="#cadeb4" d="m488.96 608.87-1-.3c-12.32-3.2-24.3-5.55-35.76-9.44-30.75-10.46-61.27-21.56-91.88-32.43-68.9-24.47-137.79-48.99-206.71-73.4-18.78-6.65-37.67-13-56.74-19.66-.78-.32-1.32-.47-2.18-.8a139 139 0 0 0-6.35-2.36c-8.65-2.92-17.15-6.04-22.14-14.54-1.08-6.17-3-12.33-3.1-18.52-.37-23.5-.16-46.99.02-71.09 1.03-.42 1.88-.24 2.95.17 1.8 1 3.36 1.77 5.05 2.58.11.04.35-.04.55.17.56.36.91.5 1.58.84a7587 7587 0 0 0 51.92 19q93.95 33.92 187.92 67.76c48.24 17.37 96.47 34.76 144.79 51.92 7.47 2.65 15.38 4.1 23.1 6.1 1.57.17 3.15.35 5.4.65 1.99.25 3.3.37 4.62.5 6.03.27 12.06.55 18.55.9.44 30.36.4 60.65.37 91.4-5.33.54-10.66.62-16.85.67-1.95-.07-3.03-.1-4.1-.12"/><path fill="#d0f1a6" d="M510.06 506.62c-6.06.53-12.13.58-19.03.55-11.04-2.44-21.56-3.9-31.4-7.31-38.24-13.26-76.29-27.07-114.36-40.81-82.1-29.63-164.2-59.25-246.22-89.11-10.87-3.96-21.24-9.31-31.84-14.02-1.43-4.69-2.85-9.38-4.28-14.96-.05-6.91-.1-12.93-.1-19.42.02-7.49 0-14.51.02-21.98.43-3.83.8-7.2 1.37-10.32 2.72 1.8 5.24 3.35 7.98 5.13 2.77 1.32 5.3 2.38 8.14 3.63 2.49 1.04 4.62 2 6.81 2.78q78.75 28.3 157.51 56.58c68.34 24.54 136.7 49 204.99 73.66 19.14 6.91 38.64 11.33 59.1 10.67.42 2.58 1.19 5.15 1.2 7.73.12 18.9.08 37.81.11 57.2"/><path fill="#81b454" d="M97.1 473.81c18.84 6.49 37.73 12.84 56.5 19.5 68.93 24.4 137.82 48.92 206.72 73.39 30.6 10.87 61.13 21.97 91.88 32.43 11.45 3.9 23.44 6.24 35.54 9.45.27 2.76.19 5.38-.32 8.4-9.85-1.62-19.61-2.67-28.64-5.84-74.35-26.08-148.57-52.56-222.83-78.93-30.76-10.92-61.54-21.81-92.3-32.78a4649 4649 0 0 1-51.75-18.81c-.7-.33-1.3-.47-2.28-.65a905 905 0 0 1-19.87-8.26 5 5 0 0 0-1.17-.72c-.42-.19-.6-.37-.78-.97a12 12 0 0 0-4.1-2.72c-.52 6.76-.75 13.23-.97 19.69-2.62.4-5.24.79-8.2 1.1a301 301 0 0 1-.35-18.63c.63-3.39 1.63-6.3 1.74-9.23.3-7.94.95-8.45 7.66-4.84.55.3 1.25.34 2.25.52 5.36 8.53 13.86 11.65 22.51 14.57 2.02.68 4.02 1.45 6.44 2.57 1.05.52 1.68.64 2.31.76"/><path fill="#81b452" d="M66.84 356.01c10.97 4.62 21.34 9.97 32.21 13.93 82.02 29.86 164.12 59.48 246.22 89.1 38.07 13.75 76.12 27.56 114.36 40.82 9.84 3.41 20.36 4.87 30.97 7.34-1.98 1.32-4.46 2.38-6.72 3.8-1.23.78-2.07 2.17-3 3.57-7.62-1.7-15.53-3.15-23-5.8-48.32-17.16-96.55-34.55-144.79-51.92Q219.11 423 125.17 389.1a5012 5012 0 0 1-52.15-19.17 30 30 0 0 0-1.55-.9s-.24.09-.48-.25c-1.88-1.06-3.5-1.79-5.14-2.52a16 16 0 0 0-2.78-.4c-4.16-1.18-5.24-3.82-2.54-6.51 1.53-1.53 3.93-2.2 6.31-3.34"/><path fill="#82b157" d="M62.78 322c.05 6.03.1 12.05.1 18.53a86 86 0 0 1-7.6 7.38c-.59-7.91-.84-15.94-.66-24.44 3.01-.8 5.59-1.13 8.16-1.46"/><path fill="#c0eeb8" d="M62.78 487.45c.17-6.92.4-13.39 1.07-19.86 1.65.92 2.84 1.85 4.03 2.78.1.25.28.43.85.81.58.5.87.64 1.21.68 6.44 2.69 12.87 5.37 19.9 8.28 1.11.37 1.63.52 2.15.67 17.22 6.21 34.42 12.48 51.66 18.62 30.76 10.97 61.54 21.86 92.3 32.78 74.26 26.37 148.48 52.85 222.83 78.93 9.03 3.17 18.8 4.22 28.66 6.25 1.59.15 2.73.3 4.67.51 4.16.06 7.52.06 10.89.06 1.4.03 2.8.05 4.85.04.65-.05 1.12-.12 1.12-.12l.7.34c.24 22.9.24 45.7.21 68.93-13.58 1.63-26.82-.52-40.68-3.67-4-1.37-7.33-2.46-10.61-3.65-45.86-16.71-91.69-33.49-137.56-50.14a155758 155758 0 0 0-207.22-75c-12.2-4.42-24.5-8.53-36.77-12.78-6.2-3.49-10.4-8.67-13.05-15.6-.5-13.01-.82-25.7-1.2-38.86"/><path fill="#78b96c" d="M76.92 542.23a981 981 0 0 1 36.9 12.45 155758 155758 0 0 1 207.2 75.01c45.88 16.65 91.71 33.43 137.57 50.14 3.28 1.2 6.6 2.28 10.2 3.6-2.3 2.16-4.9 4.14-7.67 6.41-16-5.35-31.85-10.95-47.64-16.68Q307.39 634.7 201.32 596.2c-40.05-14.53-80.13-28.98-120.14-43.63-5.73-2.1-11.13-5.13-17.98-8.34 0 4.21 0 8.04-.08 12.32-4.25-3.24-3.85-12.85.95-15.3 1.4-.71 4.2.36 5.9 1.38 2.49 1.5 4.56 3.79 6.95-.4"/><path fill="#82b157" d="M64.01 288.98c-.37 3.37-.73 6.75-1.47 10.7-1.57 2.48-2.99 4.28-3.92 6.3-1.65 3.57-3 7.28-4.47 10.92-.03-7.65-.05-15.3-.03-23.43 4.83-1.3 6.93-4.83 8.9-8.94.58 1.44.79 2.94 1 4.45"/><path fill="#83b358" d="M54.1 317.34c1.52-4.08 2.87-7.79 4.52-11.36.93-2.02 2.35-3.82 3.86-5.85.34 6.9.37 13.92.35 21.41-2.62.8-5.2 1.13-8.16 1.47a23 23 0 0 1-.57-5.67"/><path fill="#fdfffd" d="M806.62 595.97c17.94 1.65 35.01 4.87 50.72 13.48 3.89 2.12 4.7 4.32 2.92 8.3-3.91 8.78-7.5 17.7-11.35 26.83-4.58-2.37-8.35-4.96-12.52-6.35-8.8-2.94-17.8-5.32-26.77-7.78-3.8-1.04-5.42.47-5.37 4.6q.29 20.49.06 40.98c-.04 3.62 1.26 5.35 4.75 6.32 13.03 3.64 25.75 8.05 37.03 15.86 19.54 13.54 25.16 35.52 18.89 56.56-7.76 26.06-28.2 37.02-52.94 42.01-7.71 1.56-7.86-.54-7.6 9.23.12 4.83-.03 9.67.14 14.5.13 3.71-1.1 5.55-5.16 5.31-4.65-.26-9.33-.2-13.99-.04-3.4.12-4.84-1.13-4.73-4.63.2-5.99-.03-12 .19-17.98.13-3.64-1.3-4.93-4.9-5.16A121 121 0 0 1 720.68 781c-1.86-1.11-3.81-2.18-5.33-3.66-.87-.85-1.68-2.8-1.29-3.74 4.05-9.64 8.36-19.18 12.85-29.33 4.7 2.66 8.92 5.17 13.24 7.5a107 107 0 0 0 34.88 11.64c4.37.66 5.98-.37 5.9-5.04-.25-13.33-.28-26.66.04-39.98.1-4.47-1.72-6.16-5.65-7.2-11.97-3.15-23.48-7.46-33.8-14.5-19.72-13.43-27.22-36.82-19.48-59.4 7.42-21.65 23.9-32.37 44.72-38.1 3.2-.88 6.48-1.63 9.78-1.95 3.48-.34 4.44-2.03 4.34-5.26-.17-5.82 0-11.66-.07-17.49-.03-2.57.65-4.13 3.64-4.02 5.16.19 10.33.29 15.49.2 3.28-.05 4.41 1.46 4.39 4.54-.04 5.33-.05 10.67.21 15.99.08 1.6 1.1 3.14 2.1 4.78m19.95 146.3c-.44-11.4-9.5-20.52-21.74-21.57v41.86c11.32-.22 19.7-7.94 21.74-20.3m-66.87-88.9c1.24 10.55 9.62 18.81 20.6 19.92v-41.75c-11.85 1.18-19.78 9.44-20.6 21.82"/><path fill="#80b44f" d="M508.81 441.5c-20.52.85-40.02-3.57-59.16-10.48-68.3-24.65-136.65-49.12-204.99-73.66l-157.5-56.58a44 44 0 0 1-6.85-3.14c-1.22-4.88-4.77-5.76-8.3-7.07 0-2.2.02-3.95.03-5.7 61.58 22.49 123.12 45.1 184.77 67.43 43.5 15.76 87.16 31.12 130.74 46.67 23.04 8.23 46.1 16.42 69.1 24.77 13.73 4.99 27.9 7.67 42.95 9.08.57.14 1.04.18 1.04.18l.46-.15c1.98-.05 3.96-.1 6.35-.09 4.44 1.95 2.3 4.85 1.6 7.86-.05.36-.18.7-.24.89"/><path fill="#81b452" d="M525.32 514.8c.53-.36 1.38-.7 2.46-.9-.56.39-1.35.65-2.46.9M517.28 515.85c-.02-.12.2-.16.52-.1.1.03-.31.1-.52.1M490.66 515.83c-.97.06-2.3-.06-3.9-.46.98-.09 2.27.1 3.9.46"/><path fill="#78b96c" d="M487.3 695.81c-5.12-.6-9.95-1.38-15.1-2.35 6.28-1.85 12.9-3.09 19.66-1.87l.43 1.3zM466.67 691.78a5 5 0 0 1-1.99-.45c.4-.07 1.04.11 2 .45"/><path fill="#81b454" d="M502.78 617.66c-3.15.3-6.51.3-10.32.2 2.96-2.82 6.5-2.45 10.32-.2M489.15 609.11c.9-.22 1.97-.19 3.45-.08-.82.16-2.04.24-3.45.08M508.85 617.83c.12.05-.35.12-.58.1-.02-.17.22-.2.58-.1"/><path fill="#7fb24f" d="M71.84 284.6c.19 2.02.17 3.77.16 6.36l-.03 3.17a255 255 0 0 1-7.75-4.89c-.41-1.77-.62-3.27-1.03-5 .21-1.9.62-3.58 1.33-5.61a55 55 0 0 1 7.32 5.97"/><path fill="#83b358" d="M905.72 290.06c-.27.32-.83.67-1.59.9.3-.36.8-.62 1.59-.9"/><path fill="#7cb149" d="M500.8 432.82c.3.03-.16.18-.16.18s-.47-.04-.62-.1c.06-.08.26-.1.77-.08"/><path fill="#83b358" d="M66.07 366.5c1.41.5 3.04 1.22 4.8 2.24-1.44-.47-3-1.24-4.8-2.24M96.87 473.64c-.4.05-1.04-.07-1.77-.4.45-.07 1 .08 1.77.4M71.67 369.25q.2-.03 1.04.49-.2.03-1.04-.49M72.2 294.37c-.22-1.02-.21-1.8-.2-2.98 3.54.5 7.09 1.37 8 6.08a51 51 0 0 1-7.8-3.1M67.8 470.02a18 18 0 0 1-3.65-2.73q1.66.9 3.65 2.73M91.9 480.62c-.43.04-.95-.11-1.69-.44.39-.03 1 .1 1.69.44M69.75 471.71q-.23.18-.84-.47.19-.05.84.47"/><path fill="#89daa9" d="M826.55 742.67c-2 11.95-10.39 19.67-21.71 19.89V720.7c12.25 1.05 21.3 10.17 21.71 21.97"/><path fill="#88d8a9" d="M759.7 652.9c.83-11.93 8.76-20.19 20.6-21.37v41.75a22.8 22.8 0 0 1-20.6-20.37"/></svg>